<?xml version="1.0" encoding="utf-8"?>
<!-- Generator: Adobe Illustrator 21.0.2, SVG Export Plug-In . SVG Version: 6.00 Build 0)  -->
<svg version="1.1" id="Layer_1" xmlns="http://www.w3.org/2000/svg" xmlns:xlink="http://www.w3.org/1999/xlink" x="0px" y="0px"
	 viewBox="0 0 512 512" style="enable-background:new 0 0 512 512;" xml:space="preserve">
<path d="M178,512c-5.5-3-7.4-7.6-7.4-14c0.1-111.4,0.2-222.9,0.1-334.3c0-11.3,3.2-14.5,14.6-14.5c83.5,0,166.9,0,250.4-0.1
	c6.6,0,11.5,1.9,16.2,6.8c17.7,18.4,35.8,36.2,53.7,54.4c2.3,2.3,4.2,5.1,6.3,7.6v294H178z M192.2,490.5c1.7,0.1,3.1,0.3,4.6,0.3
	c96.1,0,192.3,0,288.4,0.1c4.4,0,5.6-1.3,5.6-5.6c-0.1-85-0.2-169.9-0.3-254.9c-0.1-3-1.3-5.9-3.4-8.2
	c-15.8-16.3-31.7-32.3-47.9-48.2c-2-1.8-4.6-2.9-7.3-3c-78.3-0.2-156.6-0.2-234.9-0.1c-1.6,0-3.2,0.2-4.8,0.3V490.5z"/>
<path d="M273,0c3,2.5,6.3,4.9,9,7.7c17.9,17.9,35.6,36,53.6,53.8c3.8,3.5,5.9,8.5,5.6,13.7c-0.3,13.5-0.1,27-0.1,40.5
	c0,7.6-4.2,12.4-10.7,12.3s-10.5-4.9-10.5-12.5c0-12,0.1-24-0.1-36c-0.1-2.1-0.9-4.1-2.3-5.6c-16.4-16.8-32.9-33.5-49.6-50
	c-1.7-1.5-3.8-2.4-6.1-2.5c-78.6-0.1-157.2-0.2-235.9-0.2c-3.7,0-4.9,1-4.9,4.8c0.1,96.6,0.1,193.3,0.1,289.9c0,1.1,0.1,2.3,0.2,4.2
	h115.9c8,0,12.9,5.4,11.7,12.6c-0.9,5.6-5.2,8.7-12.2,8.7h-81c-14,0-28-0.2-42,0.1C7.6,341.5,3,339.5,0,334V8l8-8H273z"/>
<path d="M170.5,85.2h83.4c9.2,0,14.8,6.7,12,14.4c-1.7,4.7-5.6,7.1-12,7.1c-20.2,0-40.3,0-60.5,0H87.6c-7.5,0-12-3.3-12.8-9.2
	c-0.8-7.2,4-12.2,12.3-12.2c16.7-0.1,33.3,0,50,0L170.5,85.2z"/>
<path d="M107,170.8c-6.7,0-13.3,0.1-20,0c-7.7-0.1-12.3-4.2-12.3-10.8s4.6-10.7,12.3-10.7c13.1-0.1,26.3-0.1,39.4,0
	c7.3,0,12.4,4.7,12.2,11c-0.2,6.1-5.1,10.4-12.2,10.5C120,170.8,113.5,170.8,107,170.8z"/>
<path d="M106.2,234.8c-6.5,0-13,0.1-19.5,0c-7.2-0.1-11.9-4.3-12-10.6c-0.1-6.6,4.6-10.9,12.1-10.9c13.3-0.1,26.6-0.1,39.9,0
	c7.1,0.1,12,4.6,11.9,10.8s-4.8,10.5-12,10.7c-3.5,0.1-7,0-10.5,0L106.2,234.8z"/>
<path d="M341.5,405.3h-84.4c-8.9,0-14.3-7.7-10.7-15.1c2.3-4.8,6.4-6.2,11.6-6.2c26.3,0.1,52.6,0,78.9,0h88.4
	c7.5,0,12.1,4.4,11.9,11.1c-0.2,6.2-4.5,10.1-11.8,10.1c-17.6,0.1-35.3,0-53,0L341.5,405.3L341.5,405.3z"/>
<path d="M341.2,341.3h-83.4c-9.2,0-14.7-6.9-11.6-14.5c2.1-5.1,6.3-6.8,11.6-6.8c27.6,0.1,55.3,0,82.9,0h84.4c6.7,0,11.2,3.4,12,8.9
	c1,7.3-3.7,12.3-12,12.3c-24.8,0.1-49.6,0.1-74.5,0L341.2,341.3L341.2,341.3z"/>
<path d="M341,256h84.4c6.1,0,10.5,3.2,11.6,8.2c1.1,5.2-1.4,10.5-6.3,12.2c-2.4,0.7-4.9,0.9-7.4,0.8c-28.3,0-56.6,0-84.9,0h-80.9
	c-5.2,0-9.2-1.7-11.3-6.5c-3.2-7.4,2.2-14.7,10.8-14.7c23.3-0.1,46.6,0,70,0H341z"/>
</svg>
