<svg id="Layer_1" data-name="Layer 1" xmlns="http://www.w3.org/2000/svg" viewBox="0 0 400.51 325.48"><defs><style>.cls-1{fill:#878787;}</style></defs><title>Artboard 1</title><path class="cls-1" d="M400.48,38.51a164.26,164.26,0,0,1-47.16,13A82.41,82.41,0,0,0,389.48,6,164.51,164.51,0,0,1,337.3,26a82.25,82.25,0,0,0-140,74.94A233.28,233.28,0,0,1,27.89,15a82.26,82.26,0,0,0,25.43,109.7A81.83,81.83,0,0,1,16.1,114.51v1A82.22,82.22,0,0,0,82,196.08a82.38,82.38,0,0,1-37.11,1.43,82.25,82.25,0,0,0,76.75,57,164.87,164.87,0,0,1-102,35.17A167.25,167.25,0,0,1,0,288.53a232.58,232.58,0,0,0,126,36.92c151.14,0,233.79-125.21,233.79-233.79q0-5.34-.24-10.63A167,167,0,0,0,400.48,38.51Z"/></svg>