<?xml version="1.0" encoding="utf-8"?>
<!-- Generator: Adobe Illustrator 21.0.2, SVG Export Plug-In . SVG Version: 6.00 Build 0)  -->
<svg version="1.1" id="Layer_1" xmlns="http://www.w3.org/2000/svg" xmlns:xlink="http://www.w3.org/1999/xlink" x="0px" y="0px"
	 viewBox="0 0 800 800" style="enable-background:new 0 0 800 800;" xml:space="preserve">
<style type="text/css">
	.st0{fill:#6B6B6B;}
</style>
<title>Artboard 1</title>
<path id="Shape_17" class="st0" d="M666.7,0H133.3C60,0,0,60,0,133.3v533.3C0,740,60,800,133.3,800h533.3C740,800,800,740,800,666.6
	V133.3C800,60,740,0,666.7,0z M680.1,400H550v350H400V400h-72.3V285.5H400v-74.4C400,110.1,443.6,50,562.4,50h136.9v123.9H587.5
	c-33.2,0-37.3,17.3-37.3,49.6l-0.2,62h150L680.1,400z"/>
</svg>
